<svg width="1200" height="900" viewBox="0 0 1200 900" fill="none" xmlns="http://www.w3.org/2000/svg">
  <rect width="1200" height="900" rx="40" fill="#16302B"/>
  <rect x="56" y="56" width="1088" height="788" rx="36" fill="#102723" stroke="#E0E0E0" stroke-opacity="0.12" stroke-width="2"/>
  <rect x="96" y="96" width="1008" height="84" rx="26" fill="#E0E0E0"/>
  <rect x="128" y="126" width="210" height="26" rx="13" fill="#390517"/>
  <rect x="912" y="122" width="152" height="32" rx="16" fill="#A38560"/>
  <rect x="96" y="220" width="248" height="584" rx="30" fill="#390517"/>
  <rect x="128" y="260" width="184" height="110" rx="22" fill="#E0E0E0" fill-opacity="0.12"/>
  <rect x="128" y="402" width="120" height="18" rx="9" fill="#A38560"/>
  <rect x="128" y="436" width="152" height="18" rx="9" fill="#E0E0E0" fill-opacity="0.62"/>
  <rect x="128" y="500" width="184" height="54" rx="27" fill="#A38560"/>
  <rect x="128" y="576" width="184" height="54" rx="27" fill="#E0E0E0"/>
  <rect x="384" y="220" width="688" height="584" rx="34" fill="#E0E0E0"/>
  <rect x="424" y="260" width="286" height="504" rx="28" fill="url(#before)"/>
  <rect x="746" y="260" width="286" height="504" rx="28" fill="url(#after)"/>
  <rect x="716" y="298" width="24" height="428" rx="12" fill="#A38560"/>
  <circle cx="728" cy="490" r="34" fill="#390517"/>
  <path d="M520 416C520 373.49 554.49 339 597 339C639.51 339 674 373.49 674 416V556C674 598.51 639.51 633 597 633C554.49 633 520 598.51 520 556V416Z" fill="#E0E0E0" fill-opacity="0.66"/>
  <circle cx="597" cy="380" r="52" fill="#E0E0E0" fill-opacity="0.66"/>
  <path d="M844 416C844 373.49 878.49 339 921 339C963.51 339 998 373.49 998 416V556C998 598.51 963.51 633 921 633C878.49 633 844 598.51 844 556V416Z" fill="#390517"/>
  <circle cx="921" cy="380" r="52" fill="#390517"/>
  <text x="500" y="736" fill="#16302B" font-family="Arial, sans-serif" font-size="26" font-weight="700">Before</text>
  <text x="836" y="736" fill="#16302B" font-family="Arial, sans-serif" font-size="26" font-weight="700">After</text>
  <defs>
    <linearGradient id="before" x1="424" y1="260" x2="710" y2="764" gradientUnits="userSpaceOnUse">
      <stop stop-color="#C4B8A9"/>
      <stop offset="1" stop-color="#A38560"/>
    </linearGradient>
    <linearGradient id="after" x1="746" y1="260" x2="1032" y2="764" gradientUnits="userSpaceOnUse">
      <stop stop-color="#E8E8E8"/>
      <stop offset="1" stop-color="#FFFFFF"/>
    </linearGradient>
  </defs>
</svg>
