<svg width="1200" height="900" viewBox="0 0 1200 900" fill="none" xmlns="http://www.w3.org/2000/svg">
  <rect width="1200" height="900" rx="40" fill="#E0E0E0"/>
  <rect x="48" y="48" width="1104" height="804" rx="36" fill="#F7F3EE" stroke="#390517" stroke-opacity="0.12" stroke-width="2"/>
  <rect x="88" y="88" width="1024" height="72" rx="24" fill="#16302B"/>
  <rect x="116" y="112" width="160" height="24" rx="12" fill="#E0E0E0"/>
  <rect x="850" y="110" width="100" height="28" rx="14" fill="#A38560"/>
  <rect x="968" y="110" width="100" height="28" rx="14" fill="#390517"/>
  <rect x="88" y="192" width="648" height="284" rx="32" fill="#390517"/>
  <rect x="124" y="236" width="188" height="24" rx="12" fill="#A38560"/>
  <rect x="124" y="280" width="420" height="58" rx="20" fill="#E0E0E0"/>
  <rect x="124" y="358" width="280" height="20" rx="10" fill="#E0E0E0" fill-opacity="0.7"/>
  <rect x="124" y="406" width="170" height="46" rx="23" fill="#A38560"/>
  <rect x="776" y="192" width="336" height="284" rx="32" fill="#16302B"/>
  <rect x="816" y="232" width="256" height="160" rx="24" fill="#E0E0E0" fill-opacity="0.16"/>
  <rect x="840" y="420" width="92" height="18" rx="9" fill="#A38560"/>
  <rect x="950" y="420" width="122" height="18" rx="9" fill="#E0E0E0" fill-opacity="0.48"/>
  <rect x="88" y="516" width="204" height="264" rx="28" fill="#FFFFFF"/>
  <rect x="316" y="516" width="204" height="264" rx="28" fill="#FFFFFF"/>
  <rect x="544" y="516" width="204" height="264" rx="28" fill="#FFFFFF"/>
  <rect x="772" y="516" width="204" height="264" rx="28" fill="#FFFFFF"/>
  <rect x="1000" y="516" width="112" height="264" rx="28" fill="#390517"/>
  <rect x="112" y="542" width="156" height="120" rx="20" fill="#F1E6DB"/>
  <rect x="340" y="542" width="156" height="120" rx="20" fill="#E8D7C6"/>
  <rect x="568" y="542" width="156" height="120" rx="20" fill="#DCC4B0"/>
  <rect x="796" y="542" width="156" height="120" rx="20" fill="#E4DDD6"/>
  <rect x="1024" y="550" width="64" height="64" rx="20" fill="#A38560"/>
  <rect x="112" y="686" width="110" height="18" rx="9" fill="#16302B"/>
  <rect x="340" y="686" width="110" height="18" rx="9" fill="#16302B"/>
  <rect x="568" y="686" width="110" height="18" rx="9" fill="#16302B"/>
  <rect x="796" y="686" width="110" height="18" rx="9" fill="#16302B"/>
  <rect x="112" y="718" width="72" height="16" rx="8" fill="#A38560"/>
  <rect x="340" y="718" width="72" height="16" rx="8" fill="#A38560"/>
  <rect x="568" y="718" width="72" height="16" rx="8" fill="#A38560"/>
  <rect x="796" y="718" width="72" height="16" rx="8" fill="#A38560"/>
  <text x="1024" y="676" fill="#E0E0E0" font-family="Arial, sans-serif" font-size="30" font-weight="700">Cart</text>
</svg>
