<svg width="1200" height="900" viewBox="0 0 1200 900" fill="none" xmlns="http://www.w3.org/2000/svg">
  <rect width="1200" height="900" rx="40" fill="#E7E1D9"/>
  <rect x="60" y="60" width="1080" height="780" rx="36" fill="#16302B"/>
  <rect x="108" y="108" width="216" height="684" rx="30" fill="#0E2420"/>
  <rect x="140" y="148" width="96" height="18" rx="9" fill="#A38560"/>
  <rect x="140" y="202" width="152" height="20" rx="10" fill="#E0E0E0" fill-opacity="0.72"/>
  <rect x="140" y="242" width="132" height="20" rx="10" fill="#E0E0E0" fill-opacity="0.3"/>
  <rect x="140" y="282" width="148" height="20" rx="10" fill="#E0E0E0" fill-opacity="0.3"/>
  <rect x="360" y="108" width="732" height="88" rx="28" fill="#E0E0E0"/>
  <rect x="404" y="138" width="248" height="24" rx="12" fill="#16302B"/>
  <rect x="916" y="134" width="132" height="32" rx="16" fill="#390517"/>
  <rect x="360" y="232" width="228" height="180" rx="28" fill="#FFFFFF"/>
  <rect x="612" y="232" width="228" height="180" rx="28" fill="#FFFFFF"/>
  <rect x="864" y="232" width="228" height="180" rx="28" fill="#FFFFFF"/>
  <rect x="392" y="270" width="164" height="76" rx="22" fill="#A38560"/>
  <rect x="644" y="270" width="164" height="76" rx="22" fill="#390517"/>
  <rect x="896" y="270" width="164" height="76" rx="22" fill="#D6C8B8"/>
  <rect x="360" y="448" width="732" height="344" rx="32" fill="#FFFFFF"/>
  <path d="M420 700L504 600L580 648L678 528L756 612L836 472L948 700H420Z" fill="#390517" fill-opacity="0.9"/>
  <path d="M420 700L504 628L580 660L678 566L756 628L836 536L948 700H420Z" fill="#A38560"/>
  <circle cx="924" cy="316" r="14" fill="#E0E0E0"/>
  <circle cx="964" cy="316" r="14" fill="#A38560"/>
  <circle cx="1004" cy="316" r="14" fill="#390517"/>
</svg>
